<?xml version="1.0" standalone="no"?><svg xmlns="http://www.w3.org/2000/svg" viewBox="0 0 1440 320"><path fill="#0099ff" fill-opacity="1" d="M0,224L40,186.7C80,149,160,75,240,80C320,85,400,171,480,218.7C560,267,640,277,720,266.7C800,256,880,224,960,229.3C1040,235,1120,277,1200,293.3C1280,309,1360,299,1400,293.3L1440,288L1440,320L1400,320C1360,320,1280,320,1200,320C1120,320,1040,320,960,320C880,320,800,320,720,320C640,320,560,320,480,320C400,320,320,320,240,320C160,320,80,320,40,320L0,320Z"></path></svg>