<?xml version="1.0" standalone="no"?><svg xmlns="http://www.w3.org/2000/svg" viewBox="0 0 1440 320" perserveAspectRatio="none">
<path fill="#0099ff" fill-opacity="1" d="M0,64L26.7,96C53.3,128,107,192,160,229.3C213.3,267,267,277,320,272C373.3,267,427,245,480,213.3C533.3,181,587,139,640,101.3C693.3,64,747,32,800,48C853.3,64,907,128,960,133.3C1013.3,139,1067,85,1120,74.7C1173.3,64,1227,96,1280,101.3C1333.3,107,1387,85,1413,74.7L1440,64L1440,320L1413.3,320C1386.7,320,1333,320,1280,320C1226.7,320,1173,320,1120,320C1066.7,320,1013,320,960,320C906.7,320,853,320,800,320C746.7,320,693,320,640,320C586.7,320,533,320,480,320C426.7,320,373,320,320,320C266.7,320,213,320,160,320C106.7,320,53,320,27,320L0,320Z"></path>
</svg>